<svg xmlns="http://www.w3.org/2000/svg" viewBox="0 0 560 160.25">
    <defs>
        <style>
            .cls-1{fill:#c7ede6;}.cls-2{fill:#fff;}.cls-3{fill:#fdfcef;}.cls-4{fill:#472b29;}.cls-5{fill:#88ae45;}.cls-6{fill:#f8e55b;}.cls-7{fill:#678c26;}.cls-8{fill:none;stroke:#472b29;stroke-linecap:round;stroke-width:0.5px;}.cls-9{fill:#d6213f;}.cls-10{fill:#2d80d3;}.cls-11{font-size:50px;font-family:BDGeminis,
            BD Geminis;}
        </style>
    </defs>
    <path class="cls-1"
          d="M178.82,95.05a30.94,30.94,0,0,0,3.43-14.19A30.46,30.46,0,0,0,163,52.38v0C163,29.52,144.92,11,122.6,11,103.78,11,88,24.21,83.52,42a28.11,28.11,0,0,0-9-1.49c-14.8,0-27,11.39-28.65,26.06a22.67,22.67,0,0,0,4.6,44.75c.34,0,.68,0,1,0,0,.34-.05.68-.05,1,0,22.27,17.66,40.32,39.45,40.32a39,39,0,0,0,30.65-15,22.76,22.76,0,0,0,37-5.72,20.63,20.63,0,0,0,6.41,1,21.41,21.41,0,0,0,21.17-21.64A21.76,21.76,0,0,0,178.82,95.05Z"/>
    <path class="cls-2"
          d="M44.68,77.91H25.44a1,1,0,0,1,0-2H44.68a1,1,0,0,1,0,2Zm5.77,0H48.53a1,1,0,0,1,0-2h1.92a1,1,0,0,1,0,2Zm9.6,3.94H42.75a1,1,0,0,1,0-2h17.3a1,1,0,0,1,0,2Zm-21.14,0H37a1,1,0,0,1,0-2h1.93a1,1,0,0,1,0,2Zm-5.78,0H29.29a1,1,0,0,1,0-2h3.84a1,1,0,0,1,0,2Zm11.55,3.93H40.83a1,1,0,0,1,0-2h3.85a1,1,0,0,1,0,2Zm5.77-17.7H48.53a1,1,0,0,0,0,2h1.92a1,1,0,0,0,0-2Zm0,3.93H40.83a1,1,0,0,0,0,2h9.62a1,1,0,0,0,0-2Zm9.62,3.93H54.3a1,1,0,0,0,0,2h5.77a1,1,0,0,0,0-2Z"/>
    <path class="cls-2"
          d="M175.52,119.22H156.28a1,1,0,0,1,0-2h19.24a1,1,0,0,1,0,2Zm7.69,0h-3.85a1,1,0,0,1,0-2h3.85a1,1,0,0,1,0,2Zm9.62,3.94H173.59a1,1,0,0,1,0-2h19.24a1,1,0,0,1,0,2Zm-23.09,0h-1.92a1,1,0,0,1,0-2h1.92a1,1,0,0,1,0,2Zm-5.83,0h-3.79a1,1,0,0,1,0-2h3.79a1,1,0,0,1,0,2Zm17.38-7.87h-9.62a1,1,0,0,1,0-2h9.62a1,1,0,0,1,0,2Zm-5.77,11.8h-3.85a1,1,0,0,1,0-2h3.85a1,1,0,0,1,0,2Z"/>
    <path class="cls-3"
          d="M147.25,57.26v1h-5.77v-1H130.89A8.84,8.84,0,0,1,130,39.64a7.61,7.61,0,0,1-.11-1.07,8.76,8.76,0,0,1,8.66-8.85,8.56,8.56,0,0,1,6.79,3.41,9.59,9.59,0,0,1,19.18.52,9.53,9.53,0,0,1-.36,2.52,6.64,6.64,0,0,1,5.17-2.52,6.77,6.77,0,0,1,6.65,6,9.11,9.11,0,0,1,1-.11,8.86,8.86,0,0,1,0,17.71H147.25Z"/>
    <path class="cls-4"
          d="M154.94,22.83a10.72,10.72,0,0,1,10.59,10.82v.09a7.48,7.48,0,0,1,3.84-1.07,7.73,7.73,0,0,1,7.43,5.91h.27a9.84,9.84,0,0,1,0,19.67H147.25a1,1,0,0,1,0-2h29.82a7.87,7.87,0,0,0,0-15.73,4.91,4.91,0,0,0-.66.06l-.27,0H176a1,1,0,0,1-1-.86,5.82,5.82,0,0,0-5.7-5.15A5.67,5.67,0,0,0,165,36.8a1,1,0,0,1-.75.36.92.92,0,0,1-.43-.11,1,1,0,0,1-.49-1.13,9,9,0,0,0,.32-2.27,8.63,8.63,0,0,0-17.26-.47,1,1,0,0,1-.68.89.93.93,0,0,1-.29,0,.94.94,0,0,1-.75-.38,7.6,7.6,0,0,0-6-3,7.79,7.79,0,0,0-7.7,7.87c0,.23,0,.45.06.67l0,.28a1,1,0,0,1-.2.73,1,1,0,0,1-.66.37,7.85,7.85,0,0,0,.76,15.65h10.59a1,1,0,0,1,0,2H130.89A9.83,9.83,0,0,1,129,38.81v-.24a9.74,9.74,0,0,1,9.62-9.84A9.36,9.36,0,0,1,144.71,31a10.61,10.61,0,0,1,10.23-8.19Z"/>
    <path class="cls-4"
          d="M157.83,36.6a5.81,5.81,0,0,1,5.6,4.61,4.44,4.44,0,0,1,2.34-.67,4.59,4.59,0,0,1,4.52,4.06,5,5,0,0,1,1.13-.13A5.7,5.7,0,0,1,177,49.84a.49.49,0,0,1-.44.53h0a.49.49,0,0,1-.48-.45,4.74,4.74,0,0,0-4.65-4.47,4.83,4.83,0,0,0-1.42.25.3.3,0,0,1-.13,0,.57.57,0,0,1-.3-.1.53.53,0,0,1-.2-.41,3.64,3.64,0,0,0-3.6-3.69,3.54,3.54,0,0,0-2.37.93.49.49,0,0,1-.32.12.57.57,0,0,1-.18,0,.5.5,0,0,1-.3-.42,4.87,4.87,0,0,0-4.77-4.53,4.39,4.39,0,0,0-1.31.21l-.14,0a.49.49,0,0,1-.46-.36.5.5,0,0,1,.33-.61,5.61,5.61,0,0,1,1.58-.25Zm-26.71,2.95a5.82,5.82,0,0,1,5.53,4.29.5.5,0,0,1-.33.61l-.14,0a.48.48,0,0,1-.46-.36,4.83,4.83,0,0,0-4.6-3.57,4.77,4.77,0,0,0-.66.05h-.07a.49.49,0,0,1-.06-1,5.16,5.16,0,0,1,.79-.07Z"/>
    <path class="cls-5"
          d="M88.38,48.43a30.27,30.27,0,0,1,16.76-6.53c3.94-.26,7.7,1.11,11.44,2.14,11.79,3.19,23.66,6,35.53,8.89a10.4,10.4,0,0,1,7.49,6c1.15,2.79-.35,5.83-2.47,7.66-2.39,2.19-5,4.08-7.59,6.05-3.32,2.45-6.51,5.1-10,7.23-2.69.87-5.38,2.21-8.28,1.94C116,80.23,100.7,79.12,85.47,77.57c-8.51-.91-17-1.39-25.58-2.13-1.41-.06-2.16-1.41-3-2.33a16.07,16.07,0,0,1,4.29-4.7q13.68-9.91,27.24-20Z"/>
    <path class="cls-6"
          d="M149.54,72.62c2.57-2,5.2-3.86,7.59-6.05,1.15,1.67,2.81,3.25,2.84,5.42.22,2.39-1.3,4.47-2.92,6-6.57,5.53-13.61,10.43-20.5,15.52-4.77,3.65-9.54,7.3-14.24,11-5.33,4.15-12,6.8-18.8,6.34A23.22,23.22,0,0,1,93,107.6c-10.42-6-21-11.74-31.91-16.64-2.2-1.1-4.69-3.21-4.17-6,.58-2.29,2.52-3.78,4.12-5.35,9.87,4.42,19.4,9.56,28.79,14.93,3,1.76,6.12,3.63,9.57,4.47a25.25,25.25,0,0,0,17-2.06c4.24-2,7.66-5.22,11.35-8,3.92-3,7.81-6.08,11.74-9.08,3.53-2.13,6.73-4.78,10-7.23Z"/>
    <path class="cls-7"
          d="M56.85,73.11c.88.92,1.63,2.27,3,2.33,8.53.74,17.07,1.21,25.58,2.13,15.23,1.55,30.51,2.66,45.74,4.21,2.9.27,5.59-1.06,8.28-1.93-3.93,3-7.82,6.06-11.74,9.08-3.69,2.8-7.11,6.06-11.35,8a25.19,25.19,0,0,1-17,2.07c-3.45-.85-6.52-2.71-9.57-4.48C80.45,89.17,70.92,84,61.05,79.61c-2.49-1.15-4.6-3.56-4.2-6.5Z"/>
    <path class="cls-8"
          d="M144.36,76.53c1.74-1.29,3.44-2.63,5.18-3.91,2.57-2,5.2-3.86,7.59-6.05,2.12-1.83,3.62-4.87,2.47-7.66a10.4,10.4,0,0,0-7.49-6c-11.87-2.85-23.74-5.7-35.53-8.89-3.74-1-7.51-2.4-11.44-2.14a30.21,30.21,0,0,0-16.76,6.53h0q-13.57,10.05-27.24,20a16.1,16.1,0,0,0-4.29,4.71h0c-.4,2.94,1.71,5.35,4.19,6.5,9.87,4.42,19.41,9.56,28.8,14.92,3,1.77,6.12,3.63,9.56,4.48a25.22,25.22,0,0,0,17-2.07c4.23-2,7.66-5.21,11.35-8,3.92-3,7.81-6.08,11.74-9.08h0"/>
    <path class="cls-9"
          d="M136.55,93.52c6.89-5.09,13.93-10,20.5-15.52,1.3,1.53,2.9,3.16,2.92,5.32.25,2.39-1.29,4.46-2.91,6-3.49,2.94-7.11,5.7-10.77,8.4-5.41,4-10.9,7.86-16.16,12q-4,3-7.85,6.13c-5.33,4.14-12,6.78-18.78,6.35A23.6,23.6,0,0,1,93,118.94c-10.43-6-21-11.7-31.95-16.63-1.77-1-3.57-2.36-4.12-4.41-.51-3,2.19-5.14,4.16-6.94C72.05,95.86,82.58,101.64,93,107.6a23.18,23.18,0,0,0,10.5,3.28c6.78.47,13.47-2.18,18.79-6.34,4.71-3.72,9.48-7.37,14.25-11Z"/>
    <path class="cls-10"
          d="M130.13,109.75c8.82-7,18.3-13.17,26.93-20.45,1.2,1.62,2.88,3.22,2.86,5.4.24,3.11-2.21,5.46-4.39,7.24-10.55,8.3-21.63,15.88-32.07,24.33a30.6,30.6,0,0,1-15.7,7.18,23.06,23.06,0,0,1-14-2.78c-10.61-6-21.29-12-32.46-16.89-2.23-1.14-4.82-3.22-4.37-6.06.49-2.35,2.51-3.88,4.16-5.41,11,4.93,21.52,10.66,32,16.63a23.61,23.61,0,0,0,10.5,3.29c6.77.43,13.45-2.21,18.77-6.35q3.9-3.1,7.85-6.13Z"/>
    <path class="cls-4"
          d="M105.4,135a24.66,24.66,0,0,1-11.93-3.13c-10.79-6.11-21.37-12-32.36-16.83-3.74-1.91-5.59-4.63-5.13-7.49a9.5,9.5,0,0,1,3.26-5A7.82,7.82,0,0,1,56,98.26c-.52-3.15,1.41-5.38,3.21-7.07-2.49-1.75-3.69-4.08-3.24-6.47a10.09,10.09,0,0,1,3.22-4.85,7.32,7.32,0,0,1-3.31-6.94c.52-2.64,2.9-4.28,4.81-5.6,8-5.79,16.39-11.95,27.25-20a31.62,31.62,0,0,1,17.43-6.78c3.53-.23,6.87.74,10.08,1.67.6.17,1.2.35,1.81.51,11.56,3.13,23.41,6,34.87,8.74l.61.14c3.38.48,6.63,3.06,8.37,6.69,1.27,3.06,0,6.24-1.9,8.39l.09.12c1.07,1.41,2.29,3,2.31,5.15a8,8,0,0,1-2.44,6.08,8.34,8.34,0,0,1,2.44,5.18,8,8,0,0,1-2.46,6.16c1.15,1.44,2.44,3.08,2.42,5.32.27,3.53-2.32,6.16-4.89,8.26-4.8,3.78-9.77,7.45-14.58,11-5.8,4.29-11.79,8.72-17.49,13.33a31.79,31.79,0,0,1-16.36,7.46A21.47,21.47,0,0,1,105.4,135Zm1.11-91.76c-.31,0-.61,0-.92,0a28.92,28.92,0,0,0-16,6.24c-10.91,8.07-19.31,14.24-27.3,20-1.58,1.09-3.47,2.39-3.76,3.88-.32,2.36,1.66,4.2,3.45,5a1.3,1.3,0,0,1,.75,1,1.33,1.33,0,0,1-.38,1.18c-.26.26-.54.51-.81.77-1.32,1.24-2.56,2.41-2.94,4-.44,2.32,2.55,4,3.47,4.47a1.35,1.35,0,0,1,.3,2.19l-.51.46c-2.09,1.88-3.55,3.36-3.24,5.27.34,1.2,1.51,2.41,3.45,3.46a1.33,1.33,0,0,1,.26,2.16l-.63.58c-1.43,1.28-2.78,2.49-3.12,4.12-.36,2.26,2.44,4,3.67,4.59,11,4.85,21.67,10.77,32.51,16.91A21.79,21.79,0,0,0,108,132.13a29.27,29.27,0,0,0,15-6.88c5.76-4.66,11.78-9.11,17.61-13.42,4.79-3.54,9.74-7.19,14.49-10.93,2.12-1.73,4.08-3.68,3.89-6.09,0-1.42-.91-2.56-1.88-3.78-.25-.31-.49-.61-.72-.92a1.35,1.35,0,0,1,.16-1.78c1.81-1.71,2.65-3.34,2.49-4.86,0,0,0-.09,0-.13,0-1.47-1.14-2.78-2.23-4l-.36-.42a1.34,1.34,0,0,1,.09-1.85c1.81-1.7,2.65-3.35,2.51-4.9,0-1.37-.87-2.48-1.77-3.66-.29-.38-.57-.75-.83-1.13a1.35,1.35,0,0,1,.22-1.78c1.7-1.47,3-3.94,2.11-6.14a9,9,0,0,0-6.47-5.17l-.72-.16c-11.48-2.76-23.36-5.62-35-8.76l-1.84-.52A29.67,29.67,0,0,0,106.51,43.2Z"/>
    <path class="cls-8"
          d="M125.52,113.32l-3.24,2.56c-5.33,4.14-12,6.78-18.78,6.35A23.57,23.57,0,0,1,93,118.94c-10.43-6-21-11.7-31.95-16.62-1.77-1-3.57-2.37-4.12-4.42-.51-3,2.19-5.14,4.16-6.94q5,2.22,9.8,4.66"/>
    <path class="cls-8" d="M134.74,106.19q-2.33,1.74-4.61,3.56"/>
    <path class="cls-8"
          d="M86.64,104q3.19,1.78,6.37,3.6a23.18,23.18,0,0,0,10.5,3.28c6.79.46,13.47-2.19,18.8-6.34,4.7-3.72,9.47-7.37,14.24-11h0c6.88-5.09,13.93-10,20.5-15.52,1.3,1.53,2.9,3.16,2.91,5.32.25,2.39-1.28,4.45-2.9,6-3.49,2.94-7.11,5.7-10.77,8.4-2.63,1.94-5.28,3.85-7.91,5.78"/>
    <path class="cls-8" d="M77,98.76q2.58,1.36,5.13,2.76"/>
    <path class="cls-3"
          d="M49.12,134H42.38a6.88,6.88,0,0,1-.85-13.69,6.26,6.26,0,0,1-.11-1.07,6.81,6.81,0,0,1,6.74-6.88,6.61,6.61,0,0,1,5,2.29,7.68,7.68,0,0,1,15.22,1.64,7.88,7.88,0,0,1-.11,1.1,4.71,4.71,0,0,1,3-1.1,4.83,4.83,0,0,1,4.72,4,7.19,7.19,0,0,1,1-.1A6.89,6.89,0,0,1,77,134H62.59v1H49.12Z"/>
    <path class="cls-4"
          d="M45.75,125.12a.48.48,0,0,0,.48-.49A4.32,4.32,0,0,0,42,120.27a12.18,12.18,0,0,0-2.4.27.5.5,0,0,0-.34.6.47.47,0,0,0,.59.34,10.15,10.15,0,0,1,2.14-.23,3.35,3.35,0,0,1,3.31,3.38A.49.49,0,0,0,45.75,125.12Zm13,7.87a1,1,0,1,1-1,1A1,1,0,0,1,58.74,133Z"/>
    <path class="cls-4"
          d="M42.38,135h6.74a1,1,0,0,0,0-2H42.38a5.89,5.89,0,0,1-.73-11.72,1,1,0,0,0,.65-.39,1,1,0,0,0,.18-.74,5.51,5.51,0,0,1-.1-.92,5.85,5.85,0,0,1,5.78-5.9,5.65,5.65,0,0,1,4.27,2,.94.94,0,0,0,1,.29,1,1,0,0,0,.69-.75,6.72,6.72,0,0,1,13.32,1.44,5.56,5.56,0,0,1-.08.82,1.1,1.1,0,0,0,.46,1.07.93.93,0,0,0,1.07,0,3.74,3.74,0,0,1,2.4-.88A3.85,3.85,0,0,1,75,120.49a1,1,0,0,0,1.1.8,5.28,5.28,0,0,1,.9-.1A5.9,5.9,0,0,1,77,133H62.59a1,1,0,0,0,0,2H77a7.87,7.87,0,0,0,0-15.74h-.34a5.75,5.75,0,0,0-5.43-3.94,5.56,5.56,0,0,0-2,.35,8.62,8.62,0,0,0-16.63-2.76,7.55,7.55,0,0,0-4.51-1.53,7.79,7.79,0,0,0-7.7,7.87,2.53,2.53,0,0,0,0,.28A7.87,7.87,0,0,0,42.38,135Z"/>
    <path class="cls-4" d="M53,133h1.92a1,1,0,0,1,0,2H53a1,1,0,0,1,0-2Z"/>
    <text class="cls-11" transform="translate(209.78 99.61)">Yafull Stack</text>
</svg>
