<svg xmlns="http://www.w3.org/2000/svg" viewBox="0 0 100 100">
    <path fill="#c7ede6"
          d="M86.907,56.71c1.135-2.155,1.785-4.605,1.785-7.21c0-6.621-4.159-12.257-10.001-14.478c0-0.007,0.001-0.014,0.001-0.022c0-11.598-9.402-21-21-21c-9.784,0-17.981,6.701-20.313,15.757C35.903,29.272,34.33,29,32.692,29C25,29,18.669,34.793,17.802,42.252c-5.204,1.101-9.11,5.717-9.11,11.248c0,6.351,5.149,11.5,11.5,11.5c0.177,0,0.352-0.012,0.526-0.022c-0.004,0.175-0.026,0.346-0.026,0.522c0,11.322,9.178,20.5,20.5,20.5c6.437,0,12.175-2.972,15.934-7.614C59.304,80.611,62.332,82,65.692,82c4.65,0,8.674-2.65,10.666-6.518C77.41,75.817,78.529,76,79.692,76c6.075,0,11-4.925,11-11C90.692,61.689,89.222,58.727,86.907,56.71z"/>
    <path fill="#fff"
          d="M17.192,48h-10c-0.276,0-0.5-0.224-0.5-0.5s0.224-0.5,0.5-0.5h10c0.276,0,0.5,0.224,0.5,0.5S17.469,48,17.192,48z M20.192,48h-1c-0.276,0-0.5-0.224-0.5-0.5s0.224-0.5,0.5-0.5h1c0.276,0,0.5,0.224,0.5,0.5S20.469,48,20.192,48z M25.183,50h-8.991c-0.276,0-0.5-0.224-0.5-0.5s0.224-0.5,0.5-0.5h8.991c0.276,0,0.5,0.224,0.5,0.5S25.459,50,25.183,50z M14.192,50h-1c-0.276,0-0.5-0.224-0.5-0.5s0.224-0.5,0.5-0.5h1c0.276,0,0.5,0.224,0.5,0.5S14.469,50,14.192,50z M11.192,50h-2c-0.276,0-0.5-0.224-0.5-0.5s0.224-0.5,0.5-0.5h2c0.276,0,0.5,0.224,0.5,0.5S11.469,50,11.192,50z M17.192,52h-2c-0.276,0-0.5-0.224-0.5-0.5s0.224-0.5,0.5-0.5h2c0.276,0,0.5,0.224,0.5,0.5S17.468,52,17.192,52z M20.192,43c-0.177,0-0.823,0-1,0c-0.276,0-0.5,0.224-0.5,0.5s0.224,0.5,0.5,0.5c0.177,0,0.823,0,1,0c0.276,0,0.5-0.224,0.5-0.5S20.468,43,20.192,43z M20.192,45c-0.177,0-4.823,0-5,0c-0.276,0-0.5,0.224-0.5,0.5s0.224,0.5,0.5,0.5c0.177,0,4.823,0,5,0c0.276,0,0.5-0.224,0.5-0.5S20.468,45,20.192,45z M25.192,47c-0.177,0-2.823,0-3,0c-0.276,0-0.5,0.224-0.5,0.5s0.224,0.5,0.5,0.5c0.177,0,2.823,0,3,0c0.276,0,0.5-0.224,0.5-0.5S25.468,47,25.192,47z"/>
    <path fill="#fff"
          d="M85.192,69h-10c-0.276,0-0.5-0.224-0.5-0.5s0.224-0.5,0.5-0.5h10c0.276,0,0.5,0.224,0.5,0.5 S85.468,69,85.192,69z M89.192,69h-2c-0.276,0-0.5-0.224-0.5-0.5s0.224-0.5,0.5-0.5h2c0.276,0,0.5,0.224,0.5,0.5 S89.468,69,89.192,69z M94.192,71h-10c-0.276,0-0.5-0.224-0.5-0.5s0.224-0.5,0.5-0.5h10c0.276,0,0.5,0.224,0.5,0.5 S94.469,71,94.192,71z M82.192,71h-1c-0.276,0-0.5-0.224-0.5-0.5s0.224-0.5,0.5-0.5h1c0.276,0,0.5,0.224,0.5,0.5 S82.468,71,82.192,71z M79.162,71h-1.97c-0.276,0-0.5-0.224-0.5-0.5s0.224-0.5,0.5-0.5h1.97c0.276,0,0.5,0.224,0.5,0.5 S79.438,71,79.162,71z M88.192,67h-5c-0.276,0-0.5-0.224-0.5-0.5s0.224-0.5,0.5-0.5h5c0.276,0,0.5,0.224,0.5,0.5 S88.469,67,88.192,67z M85.192,73h-2c-0.276,0-0.5-0.224-0.5-0.5s0.224-0.5,0.5-0.5h2c0.276,0,0.5,0.224,0.5,0.5 S85.468,73,85.192,73z"/>
    <path fill="#fdfcef"
          d="M70.5,37.5V38h-3v-0.5c0,0-4.242,0-5.5,0c-2.485,0-4.5-2.015-4.5-4.5 c0-2.333,1.782-4.229,4.055-4.455C61.533,28.364,61.5,28.187,61.5,28c0-2.485,2.015-4.5,4.5-4.5c1.438,0,2.703,0.686,3.527,1.736 C69.667,22.6,71.829,20.5,74.5,20.5c2.761,0,5,2.239,5,5c0,0.446-0.077,0.87-0.187,1.282c0.642-0.777,1.6-1.282,2.687-1.282 c1.781,0,3.234,1.335,3.455,3.055C85.636,28.533,85.813,28.5,86,28.5c2.485,0,4.5,2.015,4.5,4.5s-2.015,4.5-4.5,4.5s-9.5,0-9.5,0 H70.5z"/>
    <path fill="#472b29"
          d="M74.5,20c3.033,0,5.5,2.467,5.5,5.5c0,0.016,0,0.031,0,0.047C80.602,25.192,81.29,25,82,25 c1.831,0,3.411,1.261,3.858,3.005C85.905,28.002,85.952,28,86,28c2.757,0,5,2.243,5,5s-2.243,5-5,5H70.5 c-0.276,0-0.5-0.224-0.5-0.5s0.224-0.5,0.5-0.5H86c2.206,0,4-1.794,4-4s-1.794-4-4-4c-0.117,0-0.23,0.017-0.343,0.032l-0.141,0.019 c-0.021,0.003-0.041,0.004-0.062,0.004c-0.246,0-0.462-0.185-0.495-0.437C84.768,27.125,83.496,26,82,26 c-0.885,0-1.723,0.401-2.301,1.1c-0.098,0.118-0.241,0.182-0.386,0.182c-0.078,0-0.156-0.018-0.228-0.056 c-0.209-0.107-0.314-0.346-0.254-0.573C78.946,26.218,79,25.852,79,25.5c0-2.481-2.019-4.5-4.5-4.5 c-2.381,0-4.347,1.872-4.474,4.263c-0.011,0.208-0.15,0.387-0.349,0.45c-0.05,0.016-0.101,0.024-0.152,0.024 c-0.15,0-0.296-0.069-0.392-0.192C68.362,24.563,67.221,24,66,24c-2.206,0-4,1.794-4,4c0,0.117,0.017,0.23,0.032,0.343l0.019,0.141 c0.016,0.134-0.022,0.268-0.106,0.373s-0.207,0.172-0.34,0.185C59.549,29.247,58,30.949,58,33c0,2.206,1.794,4,4,4h5.5 c0.276,0,0.5,0.224,0.5,0.5S67.776,38,67.5,38H62c-2.757,0-5-2.243-5-5c0-2.397,1.689-4.413,4.003-4.877 C61.001,28.082,61,28.041,61,28c0-2.757,2.243-5,5-5c1.176,0,2.293,0.416,3.183,1.164C69.781,21.76,71.945,20,74.5,20L74.5,20z"/>
    <path fill="#472b29"
          d="M76,27c1.403,0,2.609,0.999,2.913,2.341C79.28,29.119,79.699,29,80.125,29 c1.202,0,2.198,0.897,2.353,2.068C82.681,31.022,82.874,31,83.063,31c1.529,0,2.811,1.2,2.918,2.732 C85.99,33.87,85.886,33.99,85.749,34c-0.006,0-0.012,0-0.018,0c-0.13,0-0.24-0.101-0.249-0.232 c-0.089-1.271-1.151-2.268-2.419-2.268c-0.229,0-0.47,0.042-0.738,0.127c-0.022,0.007-0.045,0.01-0.067,0.01 c-0.055,0-0.11-0.02-0.156-0.054C82.038,31.537,82,31.455,82,31.375c0-1.034-0.841-1.875-1.875-1.875 c-0.447,0-0.885,0.168-1.231,0.473c-0.047,0.041-0.106,0.063-0.165,0.063c-0.032,0-0.063-0.006-0.093-0.019 c-0.088-0.035-0.148-0.117-0.155-0.212C78.377,28.512,77.288,27.5,76,27.5c-0.208,0-0.425,0.034-0.682,0.107 c-0.023,0.007-0.047,0.01-0.07,0.01c-0.109,0-0.207-0.073-0.239-0.182c-0.038-0.133,0.039-0.271,0.172-0.309 C75.483,27.04,75.744,27,76,27L76,27z M62.117,28.5c1.326,0,2.508,0.897,2.874,2.182c0.038,0.133-0.039,0.271-0.172,0.309 C64.795,30.997,64.772,31,64.75,31c-0.109,0-0.209-0.072-0.24-0.182C64.205,29.748,63.221,29,62.117,29 c-0.117,0-0.23,0.014-0.342,0.029c-0.012,0.002-0.023,0.003-0.035,0.003c-0.121,0-0.229-0.092-0.246-0.217 c-0.019-0.137,0.077-0.263,0.214-0.281C61.842,28.516,61.978,28.5,62.117,28.5L62.117,28.5z"/>
    <path fill="#88ae45"
          d="M39.906,33.012c2.471-1.963,5.563-3.092,8.708-3.318c2.047-0.132,4.004,0.562,5.948,1.088 c6.126,1.619,12.296,3.068,18.464,4.519c1.717,0.242,3.153,1.526,3.893,3.037c0.599,1.421-0.18,2.966-1.281,3.896 c-1.242,1.113-2.612,2.074-3.946,3.076c-1.725,1.244-3.386,2.591-5.222,3.676c-1.398,0.443-2.798,1.121-4.304,0.983 c-7.917-0.79-15.857-1.355-23.774-2.142c-4.423-0.465-8.863-0.705-13.292-1.085c-0.735-0.028-1.126-0.716-1.583-1.184 c0.602-0.914,1.312-1.771,2.229-2.39C30.485,39.81,35.2,36.418,39.906,33.012L39.906,33.012z"/>
    <path fill="#f8e55b"
          d="M71.691,45.309c1.334-1.002,2.704-1.963,3.946-3.076c0.596,0.848,1.459,1.655,1.473,2.759 c0.114,1.212-0.671,2.272-1.517,3.054c-3.411,2.809-7.074,5.301-10.654,7.886c-2.476,1.856-4.955,3.712-7.401,5.604 c-2.768,2.112-6.242,3.458-9.77,3.222c-1.93-0.08-3.788-0.727-5.457-1.666c-5.416-3.029-10.893-5.967-16.583-8.459 c-1.143-0.559-2.438-1.633-2.166-3.048c0.297-1.165,1.309-1.925,2.138-2.72c5.128,2.247,10.083,4.857,14.964,7.586 c1.586,0.895,3.181,1.845,4.972,2.274c2.95,0.699,6.117,0.27,8.832-1.049c2.202-0.994,3.982-2.652,5.901-4.075 c2.035-1.537,4.057-3.09,6.101-4.615C68.305,47.9,69.966,46.554,71.691,45.309L71.691,45.309z"/>
    <path fill="#678c26"
          d="M23.517,45.557c0.457,0.468,0.848,1.156,1.583,1.184c4.429,0.38,8.868,0.62,13.292,1.085 c7.917,0.788,15.857,1.352,23.774,2.142c1.506,0.138,2.906-0.54,4.304-0.983c-2.044,1.526-4.065,3.079-6.101,4.615 c-1.919,1.424-3.699,3.081-5.901,4.075c-2.715,1.319-5.882,1.749-8.832,1.049c-1.791-0.43-3.386-1.379-4.972-2.274 c-4.881-2.729-9.836-5.339-14.964-7.586C24.407,48.28,23.309,47.052,23.517,45.557L23.517,45.557z"/>
    <path fill="none" stroke="#472b29" stroke-linecap="round" stroke-width=".5"
          d="M69,47.296 c0.902-0.655,1.788-1.335,2.691-1.986c1.334-1.002,2.704-1.963,3.946-3.076c1.101-0.931,1.88-2.475,1.281-3.896 c-0.74-1.512-2.177-2.795-3.893-3.037c-6.168-1.451-12.338-2.899-18.464-4.519c-1.944-0.526-3.902-1.22-5.948-1.088 c-3.145,0.226-6.237,1.355-8.708,3.318l0,0c-4.706,3.406-9.42,6.799-14.16,10.155c-0.918,0.62-1.628,1.476-2.229,2.39l0,0 c-0.208,1.495,0.89,2.723,2.182,3.307c5.128,2.247,10.083,4.857,14.964,7.586c1.586,0.895,3.181,1.845,4.972,2.274 c2.95,0.7,6.117,0.27,8.832-1.049c2.202-0.994,3.982-2.652,5.901-4.075c2.035-1.536,4.057-3.089,6.101-4.615c0,0,0,0,0,0"/>
    <path fill="#d6213f"
          d="M64.939,55.933c3.58-2.585,7.243-5.078,10.654-7.886c0.677,0.774,1.509,1.605,1.517,2.704 c0.13,1.212-0.666,2.263-1.511,3.04c-1.811,1.495-3.694,2.895-5.598,4.268c-2.81,2.028-5.665,3.997-8.398,6.126 c-1.369,1.027-2.728,2.065-4.079,3.114c-2.768,2.104-6.237,3.45-9.759,3.23c-1.924-0.102-3.788-0.727-5.455-1.671 c-5.419-3.034-10.912-5.95-16.603-8.453c-0.921-0.485-1.855-1.203-2.144-2.244c-0.261-1.542,1.14-2.613,2.163-3.527 c5.69,2.492,11.167,5.43,16.583,8.459c1.669,0.939,3.527,1.586,5.457,1.666c3.528,0.237,7.002-1.11,9.77-3.222 C59.983,59.645,62.462,57.789,64.939,55.933L64.939,55.933z"/>
    <path fill="#2d80d3"
          d="M61.603,64.185c4.584-3.571,9.512-6.694,13.996-10.395c0.627,0.821,1.5,1.636,1.486,2.745 c0.125,1.581-1.148,2.776-2.282,3.682c-5.482,4.219-11.242,8.071-16.666,12.367c-2.33,1.903-5.144,3.288-8.158,3.651 c-2.501,0.311-5.086-0.218-7.291-1.418c-5.519-3.059-11.07-6.085-16.875-8.583c-1.156-0.578-2.504-1.636-2.268-3.081 c0.255-1.195,1.301-1.974,2.163-2.748c5.691,2.503,11.184,5.419,16.603,8.453c1.667,0.945,3.53,1.57,5.455,1.671 c3.522,0.221,6.991-1.126,9.759-3.23C58.874,66.25,60.234,65.212,61.603,64.185L61.603,64.185z"/>
    <path fill="#472b29"
          d="M48.75,77c-2.13,0-4.285-0.547-6.198-1.589c-5.607-3.108-11.108-6.099-16.818-8.555 c-1.948-0.973-2.908-2.356-2.67-3.811c0.237-1.113,0.966-1.882,1.696-2.539c-0.876-0.617-1.433-1.343-1.661-2.164 c-0.273-1.598,0.731-2.734,1.668-3.593c-1.296-0.89-1.917-2.075-1.684-3.29c0.272-1.074,0.983-1.821,1.672-2.466 c-1.053-0.745-1.94-1.961-1.722-3.528c0.271-1.339,1.507-2.173,2.5-2.843c4.156-2.943,8.521-6.074,14.163-10.157 c2.485-1.975,5.712-3.206,9.061-3.447c1.836-0.117,3.567,0.374,5.239,0.848c0.313,0.089,0.625,0.178,0.938,0.262 c6.008,1.588,12.167,3.037,18.125,4.438l0.317,0.075c1.754,0.244,3.445,1.552,4.35,3.4c0.657,1.556,0.022,3.17-0.989,4.265 c0.016,0.02,0.032,0.041,0.048,0.061c0.557,0.714,1.189,1.525,1.202,2.617c0.098,1.018-0.328,2.068-1.268,3.091 c0.604,0.696,1.246,1.544,1.268,2.636c0.102,1.057-0.328,2.108-1.28,3.13c0.6,0.733,1.269,1.565,1.255,2.702 c0.145,1.794-1.201,3.135-2.537,4.201c-2.497,1.921-5.08,3.788-7.577,5.592c-3.015,2.179-6.132,4.432-9.091,6.776 c-2.599,2.123-5.542,3.437-8.502,3.794C49.756,76.969,49.254,77,48.75,77z M49.328,30.355c-0.159,0-0.318,0.005-0.477,0.015 c-3.071,0.22-6.03,1.347-8.326,3.171c-5.67,4.105-10.039,7.238-14.19,10.178c-0.822,0.556-1.803,1.217-1.956,1.972 c-0.166,1.201,0.863,2.134,1.796,2.556c0.206,0.093,0.351,0.281,0.39,0.502c0.038,0.221-0.036,0.446-0.199,0.602 c-0.137,0.131-0.279,0.261-0.421,0.393c-0.684,0.629-1.33,1.224-1.53,2.007c-0.225,1.177,1.325,2.039,1.806,2.274 c0.203,0.099,0.344,0.292,0.375,0.515c0.031,0.223-0.051,0.446-0.22,0.597l-0.265,0.235c-1.088,0.956-1.845,1.708-1.681,2.677 c0.173,0.612,0.781,1.226,1.79,1.757c0.197,0.104,0.33,0.296,0.358,0.515c0.027,0.219-0.055,0.438-0.22,0.587l-0.33,0.291 c-0.744,0.651-1.446,1.266-1.623,2.095c-0.187,1.15,1.271,2.017,1.907,2.336c5.732,2.465,11.267,5.474,16.9,8.596 c2.111,1.15,4.554,1.626,6.873,1.338c2.704-0.326,5.404-1.537,7.81-3.502c2.991-2.369,6.121-4.631,9.148-6.818 c2.489-1.799,5.064-3.659,7.534-5.56c1.101-0.88,2.117-1.87,2.02-3.093c0.006-0.723-0.47-1.304-0.975-1.921 c-0.129-0.157-0.256-0.313-0.374-0.468c-0.212-0.278-0.178-0.67,0.08-0.907c0.943-0.866,1.379-1.697,1.296-2.47 c-0.002-0.022-0.003-0.044-0.004-0.067c-0.006-0.748-0.594-1.411-1.163-2.052l-0.187-0.212c-0.241-0.276-0.219-0.691,0.05-0.94 c0.938-0.868,1.376-1.707,1.303-2.495c-0.011-0.693-0.452-1.259-0.919-1.859c-0.15-0.192-0.298-0.383-0.434-0.576 c-0.201-0.286-0.15-0.678,0.118-0.904c0.884-0.747,1.565-2.001,1.094-3.118c-0.694-1.414-1.988-2.434-3.36-2.628l-0.378-0.086 c-5.966-1.403-12.136-2.855-18.165-4.449c-0.321-0.087-0.639-0.177-0.958-0.268C52.152,30.751,50.756,30.355,49.328,30.355z"/>
    <g>
        <path fill="none" stroke="#472b29" stroke-linecap="round" stroke-width=".5"
              d="M59.209,66 c-0.563,0.431-1.125,0.865-1.685,1.3c-2.768,2.104-6.237,3.45-9.759,3.23c-1.924-0.102-3.788-0.727-5.455-1.671 c-5.419-3.034-10.912-5.95-16.603-8.453c-0.921-0.485-1.855-1.203-2.144-2.244c-0.261-1.542,1.14-2.613,2.163-3.527 c1.716,0.752,3.413,1.544,5.095,2.367"/>
        <path fill="none" stroke="#472b29" stroke-linecap="round" stroke-width=".5" d="M64,62.373 c-0.807,0.594-1.607,1.197-2.397,1.812"/>
        <path fill="none" stroke="#472b29" stroke-linecap="round" stroke-width=".5"
              d="M39,61.26 c1.107,0.605,2.209,1.217,3.31,1.832c1.669,0.939,3.527,1.586,5.457,1.666c3.528,0.237,7.002-1.11,9.77-3.222 c2.446-1.892,4.925-3.748,7.401-5.604v0c3.58-2.585,7.243-5.078,10.654-7.886c0.677,0.774,1.509,1.605,1.517,2.704 c0.13,1.212-0.666,2.263-1.511,3.04c-1.811,1.495-3.694,2.895-5.598,4.268c-1.366,0.986-2.743,1.958-4.111,2.941"/>
        <path fill="none" stroke="#472b29" stroke-linecap="round" stroke-width=".5" d="M34,58.599 c0.893,0.46,1.781,0.928,2.667,1.401"/>
    </g>
    <g>
        <path fill="#fdfcef"
              d="M19.5,76.5c0,0-1.567,0-3.5,0s-3.5-1.567-3.5-3.5c0-1.781,1.335-3.234,3.055-3.455 C15.527,69.366,15.5,69.187,15.5,69c0-1.933,1.567-3.5,3.5-3.5c1.032,0,1.95,0.455,2.59,1.165c0.384-1.808,1.987-3.165,3.91-3.165 c2.209,0,4,1.791,4,4c0,0.191-0.03,0.374-0.056,0.558C29.872,67.714,30.408,67.5,31,67.5c1.228,0,2.245,0.887,2.455,2.055 C33.634,69.527,33.813,69.5,34,69.5c1.933,0,3.5,1.567,3.5,3.5s-1.567,3.5-3.5,3.5s-7.5,0-7.5,0V77h-7V76.5z"/>
        <path fill="#472b29"
              d="M17.75,72c0.138,0,0.25-0.112,0.25-0.25c0-1.223-0.995-2.218-2.218-2.218 c-0.034,0.009-0.737-0.001-1.244,0.136c-0.133,0.036-0.212,0.173-0.176,0.306c0.036,0.134,0.173,0.213,0.306,0.176 c0.444-0.12,1.1-0.12,1.113-0.118c0.948,0,1.719,0.771,1.719,1.718C17.5,71.888,17.612,72,17.75,72z M24.5,76 c0.276,0,0.5,0.224,0.5,0.5S24.776,77,24.5,77S24,76.776,24,76.5S24.224,76,24.5,76z"/>
        <path fill="#472b29"
              d="M16,77h3.5c0.276,0,0.5-0.224,0.5-0.5S19.776,76,19.5,76H16c-1.654,0-3-1.346-3-3 c0-1.496,1.125-2.768,2.618-2.959c0.134-0.018,0.255-0.088,0.336-0.196s0.115-0.244,0.094-0.377C16.025,69.314,16,69.16,16,69 c0-1.654,1.346-3,3-3c0.85,0,1.638,0.355,2.219,1c0.125,0.139,0.321,0.198,0.5,0.148c0.182-0.049,0.321-0.195,0.36-0.379 C22.42,65.165,23.859,64,25.5,64c1.93,0,3.5,1.57,3.5,3.5c0,0.143-0.021,0.28-0.041,0.418c-0.029,0.203,0.063,0.438,0.242,0.54 s0.396,0.118,0.556-0.01C30.122,68.155,30.551,68,31,68c0.966,0,1.792,0.691,1.963,1.644c0.048,0.267,0.296,0.446,0.569,0.405 C33.686,70.025,33.84,70,34,70c1.654,0,3,1.346,3,3s-1.346,3-3,3h-7.5c-0.276,0-0.5,0.224-0.5,0.5s0.224,0.5,0.5,0.5H34 c2.206,0,4-1.794,4-4s-1.794-4-4-4c-0.059,0-0.116,0.002-0.174,0.006C33.412,67.82,32.289,67,31,67 c-0.349,0-0.689,0.061-1.011,0.18C29.824,64.847,27.874,63,25.5,63c-1.831,0-3.466,1.127-4.153,2.774 C20.667,65.276,19.845,65,19,65c-2.206,0-4,1.794-4,4c0,0.048,0.001,0.095,0.004,0.142C13.261,69.59,12,71.169,12,73 C12,75.206,13.794,77,16,77z"/>
        <path fill="#472b29"
              d="M21.5,76c0.159,0,0.841,0,1,0c0.276,0,0.5,0.224,0.5,0.5S22.776,77,22.5,77c-0.159,0-0.841,0-1,0 c-0.276,0-0.5-0.224-0.5-0.5S21.224,76,21.5,76z"/>
    </g>
</svg>
